# Blender v3.0.0 OBJ File: ''
# www.blender.org
mtllib TBEACR.mtl
o Object_0.001
v -162.000000 142.999969 782.000000
v -162.000000 -143.000031 782.000000
v -451.000000 -222.000031 782.000000
v -451.000000 221.999969 782.000000
v 128.000000 112.999962 932.000000
v -128.000000 112.999962 932.000000
v 162.000000 142.999969 782.000000
v -451.000000 222.000031 -782.000000
v -903.000000 222.000000 0.000010
v -903.000000 -222.000000 -0.000010
v -451.000000 -221.999969 -782.000000
v -128.000000 -113.000038 932.000000
v 128.000000 -113.000038 932.000000
v 162.000000 -143.000031 782.000000
v 451.000000 221.999969 782.000000
v 451.000000 -222.000031 782.000000
v 903.000000 222.000000 0.000010
v 903.000000 -222.000000 -0.000010
v 451.000000 222.000031 -782.000000
v 451.000000 -221.999969 -782.000000
v 626.000000 222.000000 0.000010
v 313.000000 222.000031 -542.000000
v -313.000000 222.000031 -542.000000
v -626.000000 222.000000 0.000010
v -313.000000 221.999969 542.000000
v 626.000000 -222.000000 -0.000010
v 313.000000 -222.000031 542.000000
v -313.000000 -222.000031 542.000000
v -626.000000 -222.000000 -0.000010
v -313.000000 -221.999969 -542.000000
v 313.000000 -221.999969 -542.000000
v 313.000000 221.999969 542.000000
v -313.000000 -1934.000000 541.999939
v -626.000000 -1934.000000 -0.000085
v -313.000000 -1934.000000 -542.000061
v 626.000000 -1934.000000 -0.000085
v 313.000000 -1934.000000 541.999939
v -313.000000 1934.000000 -541.999939
v -626.000000 1934.000000 0.000085
v 313.000000 1934.000000 -541.999939
v 626.000000 1934.000000 0.000085
v 313.000000 -1934.000000 -542.000061
v 313.000000 1934.000000 542.000061
v -313.000000 1934.000000 542.000061
vt 0.031250 0.406250
vt 0.281250 0.250000
vt 0.218750 0.406250
vt 0.250000 0.375000
vt 0.406250 0.625000
vt 0.250000 0.593750
vt 0.281250 0.031250
vt 0.000000 0.250000
vt 0.281250 0.250000
vt 0.000000 0.031250
vt 0.250000 0.593750
vt 0.406250 0.375000
vt 0.968750 1.000000
vt 0.750000 0.781250
vt 0.968750 0.781250
vt 0.218750 0.593750
vt 0.000000 0.750000
vt 0.031250 0.593750
vt 0.281250 0.750000
vt 0.000000 0.250000
vt 0.281250 1.000000
vt 0.000000 0.750000
vt 0.281250 0.750000
vt 0.250000 0.375000
vt 0.406250 0.625000
vt 0.250000 0.593750
vt 0.000000 1.000000
vt 0.250000 0.375000
vt 0.406250 0.625000
vt 0.750000 1.000000
vt 0.406250 0.375000
vt 0.406250 0.375000
vt 0.812500 0.656250
vt 0.468750 1.000000
vt 0.468750 0.843750
vt 0.812500 0.343750
vt 0.968750 0.750000
vt 0.125000 0.343750
vt 0.468750 0.031250
vt 0.468750 0.156250
vt 0.125000 0.656250
vt 0.468750 1.000000
vt 0.468750 0.843750
vt 0.125000 0.343750
vt 0.468750 0.031250
vt 0.812500 0.343750
vt 0.468750 0.156250
vt 0.812500 0.656250
vt 0.968750 0.750000
vt 0.968750 0.250000
vt 0.968750 0.250000
vt 0.125000 0.656250
vt 0.000000 0.750000
vt 0.000000 0.250000
vt 0.000000 0.031250
vt 0.968750 0.250000
vt 0.000000 0.250000
vt 0.000000 0.250000
vt 0.968750 0.031250
vt 0.000000 0.750000
vt 0.968750 1.000000
vt 0.000000 1.000000
vt 0.968750 0.750000
vt 0.968750 0.031250
vt 0.000000 0.250000
vt 0.968750 0.250000
vt 0.000000 0.750000
vt 0.968750 0.750000
vt 0.000000 1.000000
vt 0.968750 1.000000
vt 0.968750 0.750000
vt 0.000000 0.750000
vt 0.000000 0.750000
vt 0.968750 0.750000
vt 0.968750 0.250000
vt 0.968750 0.250000
vt 0.000000 0.031250
vt 0.000000 0.250000
vn 0.0000 0.0000 -1.0000
vn 0.0000 -0.9806 -0.1961
vn 0.8658 0.0000 0.5004
vn 0.8658 0.0000 -0.5004
vn 0.9753 0.0000 -0.2211
vn -0.8658 0.0000 -0.5004
vn 0.0000 0.0000 1.0000
vn -0.9753 0.0000 -0.2211
vn -0.8658 -0.0000 0.5004
vn 0.0000 0.9806 -0.1961
vn 0.0000 -1.0000 0.0000
vn 0.0000 1.0000 0.0000
vn 0.8660 0.0000 -0.5001
vn 0.8660 -0.0000 0.5001
vn -0.8660 0.0000 -0.5001
vn -0.8660 -0.0000 0.5001
usemtl tex_0.001
s off
f 2/1/1 4/2/1 1/3/1
f 6/4/2 7/5/2 5/6/2
f 9/7/3 11/8/3 8/9/3
f 4/2/4 10/10/4 9/7/4
f 12/11/5 1/12/5 6/4/5
f 5/13/1 12/14/1 6/15/1
f 7/16/1 16/17/1 14/18/1
f 1/3/1 15/19/1 7/16/1
f 14/18/1 3/20/1 2/1/1
f 17/21/6 16/17/6 15/19/6
f 8/9/7 20/22/7 19/23/7
f 5/24/8 14/25/8 13/26/8
f 19/23/9 18/27/9 17/21/9
f 13/28/10 2/29/10 12/11/10
f 2/1/1 3/20/1 4/2/1
f 6/4/2 1/12/2 7/5/2
f 9/7/3 10/10/3 11/8/3
f 4/2/4 3/20/4 10/10/4
f 12/11/5 2/29/5 1/12/5
f 5/13/1 13/30/1 12/14/1
f 7/16/1 15/19/1 16/17/1
f 1/3/1 4/2/1 15/19/1
f 14/18/1 16/17/1 3/20/1
f 17/21/6 18/27/6 16/17/6
f 8/9/7 11/8/7 20/22/7
f 5/24/8 7/31/8 14/25/8
f 19/23/9 20/22/9 18/27/9
f 13/28/10 14/32/10 2/29/10
usemtl tex_1
f 22/33/11 17/34/11 21/35/11
f 23/36/11 19/37/11 22/33/11
f 25/38/11 9/39/11 24/40/11
f 27/41/12 18/42/12 26/43/12
f 28/44/12 10/45/12 3/20/12
f 30/46/12 10/45/12 29/47/12
f 31/48/12 18/42/12 20/49/12
f 31/48/12 11/50/12 30/46/12
f 23/36/11 9/39/11 8/51/11
f 32/52/11 17/34/11 15/53/11
f 32/52/11 4/54/11 25/38/11
f 28/44/12 16/17/12 27/41/12
f 22/33/11 19/37/11 17/34/11
f 23/36/11 8/51/11 19/37/11
f 25/38/11 4/54/11 9/39/11
f 27/41/12 16/17/12 18/42/12
f 28/44/12 29/47/12 10/45/12
f 30/46/12 11/50/12 10/45/12
f 31/48/12 26/43/12 18/42/12
f 31/48/12 20/49/12 11/50/12
f 23/36/11 24/40/11 9/39/11
f 32/52/11 21/35/11 17/34/11
f 32/52/11 15/53/11 4/54/11
f 28/44/12 3/20/12 16/17/12
usemtl tex_2
f 34/55/13 28/56/13 33/57/13
f 35/58/14 29/59/14 34/55/14
f 37/60/15 26/61/15 36/62/15
f 33/57/1 27/63/1 37/60/1
f 39/64/14 23/65/14 38/66/14
f 38/66/7 22/67/7 40/68/7
f 40/68/16 21/69/16 41/70/16
f 36/62/16 31/71/16 42/72/16
f 41/70/15 32/73/15 43/74/15
f 42/72/7 30/75/7 35/58/7
f 44/76/13 24/77/13 39/64/13
f 43/74/1 25/78/1 44/76/1
f 34/55/13 29/59/13 28/56/13
f 35/58/14 30/75/14 29/59/14
f 37/60/15 27/63/15 26/61/15
f 33/57/1 28/56/1 27/63/1
f 39/64/14 24/77/14 23/65/14
f 38/66/7 23/65/7 22/67/7
f 40/68/16 22/67/16 21/69/16
f 36/62/16 26/61/16 31/71/16
f 41/70/15 21/69/15 32/73/15
f 42/72/7 31/71/7 30/75/7
f 44/76/13 25/78/13 24/77/13
f 43/74/1 32/73/1 25/78/1
o Object_1.001
v 103.000000 -3521.000000 178.999847
v 206.000000 -3521.000000 -0.000154
v -206.000000 -3521.000000 -0.000154
v -103.000000 -3521.000000 178.999847
v -465.000000 -2187.000000 -805.000122
v 465.000000 -2187.000000 -805.000122
v 465.000000 -1949.000000 -805.000061
v -465.000000 -1949.000000 -805.000061
v -930.000000 -2187.000000 -0.000096
v -930.000000 -1949.000000 -0.000085
v 930.000000 -2187.000000 -0.000096
v 930.000000 -1949.000000 -0.000085
v 465.000000 -2187.000000 804.999878
v -465.000000 -2187.000000 804.999878
v -465.000000 -1949.000000 804.999939
v 465.000000 -1949.000000 804.999939
v -103.000000 -3521.000000 -179.000153
v 103.000000 -3521.000000 -179.000153
v -233.000000 -3281.000000 403.999847
v 233.000000 -3281.000000 403.999847
v 150.000000 -3281.000000 259.999847
v -150.000000 -3281.000000 259.999847
v 466.000000 -3281.000000 -0.000143
v 233.000000 -3281.000000 -404.000153
v 150.000000 -3281.000000 -260.000153
v 300.000000 -3281.000000 -0.000143
v 573.000000 -2187.000000 -992.000122
v 1145.000000 -2187.000000 -0.000096
v -466.000000 -3281.000000 -0.000143
v -300.000000 -3281.000000 -0.000143
v -233.000000 -3281.000000 -404.000153
v -150.000000 -3281.000000 -260.000153
v 573.000000 -2187.000000 991.999878
v -573.000000 -2187.000000 991.999878
v -1145.000000 -2187.000000 -0.000096
v -573.000000 -2187.000000 -992.000122
v 563.000000 -2640.000000 -975.000122
v -563.000000 -2640.000000 -975.000122
v -431.000000 -3024.000000 -746.000122
v 431.000000 -3024.000000 -746.000122
v -1126.000000 -2640.000000 -0.000115
v -563.000000 -2640.000000 974.999878
v -431.000000 -3024.000000 745.999878
v -862.000000 -3024.000000 -0.000132
v 1126.000000 -2640.000000 -0.000115
v 563.000000 -2640.000000 974.999878
v 431.000000 -3024.000000 745.999878
v 862.000000 -3024.000000 -0.000132
vt 0.500000 1.000000
vt 0.468750 0.875000
vt 0.468750 0.937500
vt 0.250000 0.750000
vt 0.406250 0.250000
vt 0.250000 0.250000
vt 0.406250 0.031250
vt 0.250000 0.031250
vt 0.250000 1.000000
vt 0.406250 0.750000
vt 0.250000 0.250000
vt 0.406250 0.750000
vt 0.250000 0.750000
vt 0.406250 1.000000
vt 0.406250 0.250000
vt 0.500000 0.843750
vt 0.531250 0.937500
vt 0.531250 0.875000
vt 0.281250 0.593750
vt 0.343750 0.437500
vt 0.281250 0.406250
vt 0.468750 0.687500
vt 0.593750 0.562500
vt 0.468750 0.625000
vt 0.062500 0.687500
vt 0.468750 0.093750
vt 0.468750 0.906250
vt 0.468750 1.000000
vt 0.875000 0.687500
vt 0.968750 0.750000
vt 0.468750 0.312500
vt 0.468750 0.375000
vt 0.656250 0.406250
vt 0.656250 0.593750
vt 0.875000 0.312500
vt 0.062500 0.687500
vt 0.468750 0.906250
vt 0.000000 0.250000
vt 0.000000 0.750000
vt 0.468750 0.031250
vt 0.062500 0.312500
vt 0.593750 0.437500
vt 0.343750 0.562500
vt 0.875000 0.312500
vt 0.968750 0.250000
vt 0.468750 0.093750
vt 0.062500 0.312500
vt 0.875000 0.687500
vt 0.593750 0.500000
vt 0.281250 0.468750
vt 0.593750 0.437500
vt 0.593750 0.500000
vt 0.281250 0.531250
vt 0.281250 0.656250
vt 0.593750 0.687500
vt 0.281250 0.718750
vt 0.593750 0.781250
vt 0.593750 0.687500
vt 0.281250 0.656250
vt 0.281250 0.531250
vt 0.437500 0.250000
vt 0.593750 0.906250
vt 0.593750 0.312500
vt 0.437500 0.250000
vt 0.593750 0.906250
vt 0.593750 0.312500
vt 0.406250 0.031250
vt 0.000000 0.968750
vt 0.406250 1.000000
vt 0.406250 1.000000
vt 0.000000 0.031250
vt 0.000000 0.968750
vt 0.593750 0.312500
vt 0.843750 0.750000
vt 0.843750 0.468750
vt 0.406250 0.031250
vt 0.000000 0.968750
vt 0.406250 1.000000
vt 0.437500 1.000000
vt 0.437500 1.000000
vt 0.437500 0.250000
vt 0.406250 0.031250
vt 0.000000 0.968750
vt 0.406250 1.000000
vt 0.843750 0.468750
vt 0.437500 1.000000
vt 0.593750 0.312500
vt 0.437500 0.250000
vt 0.437500 0.250000
vt 0.593750 0.906250
vt 0.593750 0.312500
vt 0.406250 1.000000
vt 0.000000 0.031250
vt 0.000000 0.968750
vt 0.843750 0.750000
vt 0.843750 0.468750
vt 0.843750 0.468750
vt 0.843750 0.468750
vt 0.406250 0.031250
vt 0.843750 0.750000
vt 0.437500 1.000000
vt 0.000000 0.031250
vt 0.593750 0.906250
vt 0.000000 0.031250
vt 0.000000 0.031250
vt 0.843750 0.750000
vt 0.593750 0.906250
vt 0.437500 1.000000
vt 0.406250 0.031250
vt 0.843750 0.750000
vn 0.0000 1.0000 0.0000
vn 0.0000 -0.0000 1.0000
vn 0.8659 0.0000 0.5002
vn -0.8659 -0.0000 0.5002
vn 0.0000 0.0000 -1.0000
vn -0.8659 -0.0000 -0.5002
vn 0.8659 0.0000 -0.5002
vn 0.0000 -1.0000 0.0000
vn 0.8203 0.3213 -0.4732
vn 0.8211 0.3203 0.4725
vn 0.0000 0.3198 0.9475
vn -0.8203 0.3213 0.4732
vn -0.8211 0.3203 -0.4725
vn 0.0000 0.3198 -0.9475
vn 0.8211 0.3203 -0.4725
vn 0.8203 0.3213 0.4732
vn -0.8211 0.3203 0.4725
vn -0.8203 0.3213 -0.4732
vn 0.0000 0.5122 0.8589
vn 0.7440 0.5115 -0.4299
vn -0.8657 0.0378 -0.4992
vn 0.8654 0.0363 -0.4997
vn -0.5200 0.7998 -0.2999
vn 0.8657 0.0378 0.4992
vn 0.0000 0.5122 -0.8589
vn -0.7439 0.5119 -0.4296
vn 0.0000 0.0375 0.9993
vn 0.0000 0.7994 0.6007
vn 0.7439 0.5119 0.4296
vn -0.7440 0.5115 0.4299
vn -0.8654 0.0363 0.4997
vn 0.5200 0.7998 0.2999
vn 0.5193 0.8002 -0.3000
vn -0.5193 0.8002 0.3000
vn 0.0000 0.0375 -0.9993
vn 0.0000 0.7994 -0.6007
vn 0.7439 0.5119 -0.4296
vn -0.8654 0.0363 -0.4997
vn 0.8657 0.0378 -0.4992
vn -0.5193 0.8002 -0.3000
vn 0.8654 0.0363 0.4997
vn -0.7440 0.5115 -0.4299
vn 0.7440 0.5115 0.4299
vn -0.7439 0.5119 0.4296
vn -0.8657 0.0378 0.4992
vn 0.5193 0.8002 0.3000
vn 0.5200 0.7998 -0.2999
vn -0.5200 0.7998 0.2999
usemtl tex_0.001
s off
f 46/79/17 48/80/17 45/81/17
f 50/82/18 52/83/18 49/84/18
f 49/84/19 54/85/19 53/86/19
f 55/87/20 51/88/20 50/82/20
f 58/89/21 60/90/21 57/91/21
f 57/91/22 56/92/22 55/87/22
f 53/86/23 59/93/23 58/89/23
f 47/94/17 62/95/17 61/96/17
f 46/79/17 47/94/17 48/80/17
f 50/82/18 51/88/18 52/83/18
f 49/84/19 52/83/19 54/85/19
f 55/87/20 56/92/20 51/88/20
f 58/89/21 59/93/21 60/90/21
f 57/91/22 60/90/22 56/92/22
f 53/86/23 54/85/23 59/93/23
f 47/94/17 46/79/17 62/95/17
usemtl tex_1
f 64/97/17 66/98/17 63/99/17
f 67/100/17 69/101/17 70/102/17
f 60/103/24 54/104/24 56/105/24
f 72/106/24 50/107/24 71/108/24
f 73/109/17 66/98/17 74/110/17
f 75/111/17 69/101/17 68/112/17
f 52/113/24 56/105/24 54/104/24
f 72/106/24 57/114/24 55/115/24
f 78/116/24 57/114/24 77/117/24
f 79/118/24 58/119/24 78/116/24
f 73/109/17 76/120/17 75/111/17
f 67/100/17 65/121/17 64/97/17
f 71/108/24 49/122/24 80/123/24
f 79/118/24 49/122/24 53/124/24
f 64/97/17 65/121/17 66/98/17
f 67/100/17 68/112/17 69/101/17
f 60/103/24 59/125/24 54/104/24
f 72/106/24 55/115/24 50/107/24
f 73/109/17 63/99/17 66/98/17
f 75/111/17 76/120/17 69/101/17
f 52/113/24 51/126/24 56/105/24
f 72/106/24 77/117/24 57/114/24
f 78/116/24 58/119/24 57/114/24
f 79/118/24 53/124/24 58/119/24
f 73/109/17 74/110/17 76/120/17
f 67/100/17 70/102/17 65/121/17
f 71/108/24 50/107/24 49/122/24
f 79/118/24 80/123/24 49/122/24
usemtl tex_2
f 66/127/25 47/128/25 74/129/25
f 76/130/26 47/128/26 61/131/26
f 76/130/27 62/132/27 69/133/27
f 69/133/28 46/134/28 70/135/28
f 65/136/29 46/134/29 45/137/29
f 65/136/30 48/138/30 66/127/30
f 66/127/31 48/138/31 47/128/31
f 76/130/32 74/129/32 47/128/32
f 76/130/27 61/131/27 62/132/27
f 69/133/33 62/132/33 46/134/33
f 65/136/34 70/135/34 46/134/34
f 65/136/30 45/137/30 48/138/30
usemtl tex_3
f 81/139/35 83/140/35 84/141/35
f 85/142/36 87/143/36 88/144/36
f 72/145/37 90/146/37 77/147/37
f 79/148/38 86/149/38 85/150/38
f 91/151/39 67/152/39 64/153/39
f 79/154/40 82/155/40 80/156/40
f 86/157/41 91/151/41 87/143/41
f 89/158/42 91/151/42 90/159/42
f 80/160/43 81/161/43 71/162/43
f 83/140/44 68/163/44 84/141/44
f 85/164/45 83/165/45 82/166/45
f 89/167/46 84/168/46 92/169/46
f 72/170/47 81/171/47 89/172/47
f 83/165/48 73/173/48 75/174/48
f 87/143/49 73/175/49 88/144/49
f 84/168/50 67/176/50 92/169/50
f 77/147/51 86/149/51 78/177/51
f 91/151/52 63/178/52 87/143/52
f 81/139/35 82/179/35 83/140/35
f 85/142/53 86/157/53 87/143/53
f 72/145/54 89/180/54 90/146/54
f 79/148/55 78/177/55 86/149/55
f 91/151/56 92/181/56 67/152/56
f 79/154/57 85/182/57 82/155/57
f 86/157/41 90/159/41 91/151/41
f 89/158/58 92/181/58 91/151/58
f 80/160/43 82/183/43 81/161/43
f 83/140/44 75/184/44 68/163/44
f 85/164/59 88/185/59 83/165/59
f 89/167/60 81/186/60 84/168/60
f 72/170/61 71/187/61 81/171/61
f 83/165/62 88/185/62 73/173/62
f 87/143/63 63/178/63 73/175/63
f 84/168/64 68/188/64 67/176/64
f 77/147/51 90/146/51 86/149/51
f 91/151/52 64/153/52 63/178/52
o Object_2.001
v -103.000000 3525.000000 179.000153
v -206.000000 3525.000000 0.000154
v 206.000000 3525.000000 0.000154
v 103.000000 3525.000000 179.000153
v -465.000000 1953.000000 -804.999939
v 465.000000 1953.000000 -804.999939
v 465.000000 2191.000000 -804.999878
v -465.000000 2191.000000 -804.999878
v -930.000000 1953.000000 0.000085
v -930.000000 2191.000000 0.000096
v 930.000000 1953.000000 0.000085
v 930.000000 2191.000000 0.000096
v 465.000000 1953.000000 805.000061
v -465.000000 1953.000000 805.000061
v -465.000000 2191.000000 805.000122
v 465.000000 2191.000000 805.000122
v 103.000000 3525.000000 -178.999847
v -103.000000 3525.000000 -178.999847
v -150.000000 3285.000000 260.000153
v 150.000000 3285.000000 260.000153
v 233.000000 3285.000000 404.000153
v -233.000000 3285.000000 404.000153
v 300.000000 3285.000000 0.000144
v 150.000000 3285.000000 -259.999847
v 233.000000 3285.000000 -403.999847
v 466.000000 3285.000000 0.000144
v 1145.000000 2191.000000 0.000096
v 573.000000 2191.000000 -991.999878
v -300.000000 3285.000000 0.000144
v -466.000000 3285.000000 0.000144
v -150.000000 3285.000000 -259.999847
v -233.000000 3285.000000 -403.999847
v 573.000000 2191.000000 992.000122
v -573.000000 2191.000000 992.000122
v -1145.000000 2191.000000 0.000096
v -573.000000 2191.000000 -991.999878
v 431.000000 3028.000000 -745.999878
v -431.000000 3028.000000 -745.999878
v -563.000000 2644.000000 -974.999878
v 563.000000 2644.000000 -974.999878
v -862.000000 3028.000000 0.000132
v -431.000000 3028.000000 746.000122
v -563.000000 2644.000000 975.000122
v -1126.000000 2644.000000 0.000116
v 563.000000 2644.000000 975.000122
v 1126.000000 2644.000000 0.000116
v 862.000000 3028.000000 0.000132
v 431.000000 3028.000000 746.000122
vt 0.500000 0.843750
vt 0.468750 0.937500
vt 0.468750 0.875000
vt 0.406250 0.750000
vt 0.250000 0.250000
vt 0.406250 0.250000
vt 0.250000 0.031250
vt 0.406250 0.031250
vt 0.406250 1.000000
vt 0.250000 0.750000
vt 0.406250 0.250000
vt 0.250000 0.750000
vt 0.406250 0.750000
vt 0.250000 1.000000
vt 0.250000 0.250000
vt 0.500000 1.000000
vt 0.531250 0.875000
vt 0.531250 0.937500
vt 0.343750 0.562500
vt 0.281250 0.406250
vt 0.343750 0.437500
vt 0.593750 0.562500
vt 0.468750 0.687500
vt 0.468750 0.625000
vt 0.062500 0.312500
vt 0.468750 0.906250
vt 0.468750 0.093750
vt 0.875000 0.687500
vt 0.468750 1.000000
vt 0.968750 0.750000
vt 0.468750 0.312500
vt 0.468750 0.375000
vt 0.593750 0.437500
vt 0.656250 0.593750
vt 0.875000 0.687500
vt 0.062500 0.687500
vt 0.468750 0.906250
vt 0.062500 0.312500
vt 0.000000 0.750000
vt 0.468750 0.031250
vt 0.000000 0.250000
vt 0.656250 0.406250
vt 0.281250 0.593750
vt 0.968750 0.250000
vt 0.875000 0.312500
vt 0.468750 0.093750
vt 0.062500 0.687500
vt 0.875000 0.312500
vt 0.281250 0.406250
vt 0.718750 0.437500
vt 0.718750 0.343750
vt 0.718750 0.437500
vt 0.281250 0.468750
vt 0.718750 0.656250
vt 0.281250 0.625000
vt 0.281250 0.687500
vt 0.718750 0.781250
vt 0.718750 0.656250
vt 0.281250 0.625000
vt 0.281250 0.468750
vt 0.593750 0.906250
vt 0.437500 0.250000
vt 0.593750 0.312500
vt 0.593750 0.906250
vt 0.437500 0.250000
vt 0.593750 0.312500
vt 0.000000 0.968750
vt 0.406250 0.031250
vt 0.406250 1.000000
vt 0.000000 0.031250
vt 0.406250 1.000000
vt 0.000000 0.968750
vt 0.843750 0.750000
vt 0.593750 0.312500
vt 0.843750 0.468750
vt 0.000000 0.968750
vt 0.406250 0.031250
vt 0.406250 1.000000
vt 0.437500 1.000000
vt 0.437500 1.000000
vt 0.437500 0.250000
vt 0.000000 0.031250
vt 0.406250 1.000000
vt 0.000000 0.968750
vt 0.843750 0.750000
vt 0.843750 0.468750
vt 0.593750 0.312500
vt 0.437500 1.000000
vt 0.437500 0.250000
vt 0.593750 0.906250
vt 0.437500 0.250000
vt 0.593750 0.312500
vt 0.000000 0.031250
vt 0.406250 1.000000
vt 0.000000 0.968750
vt 0.843750 0.750000
vt 0.843750 0.468750
vt 0.843750 0.468750
vt 0.843750 0.468750
vt 0.406250 0.031250
vt 0.843750 0.750000
vt 0.437500 1.000000
vt 0.000000 0.031250
vt 0.593750 0.906250
vt 0.000000 0.031250
vt 0.406250 0.031250
vt 0.593750 0.906250
vt 0.437500 1.000000
vt 0.406250 0.031250
vt 0.843750 0.750000
vn 0.0000 -1.0000 0.0000
vn 0.0000 -0.0000 1.0000
vn 0.8659 0.0000 0.5002
vn -0.8659 -0.0000 0.5002
vn 0.0000 0.0000 -1.0000
vn -0.8659 -0.0000 -0.5002
vn 0.8659 0.0000 -0.5002
vn 0.0000 1.0000 0.0000
vn 0.8203 -0.3213 -0.4732
vn 0.8211 -0.3203 0.4725
vn 0.0000 -0.3198 0.9475
vn -0.8203 -0.3213 0.4732
vn -0.8211 -0.3203 -0.4725
vn 0.0000 -0.3198 -0.9475
vn 0.8211 -0.3203 -0.4725
vn 0.8203 -0.3213 0.4732
vn -0.8211 -0.3203 0.4725
vn -0.8203 -0.3213 -0.4732
vn 0.0000 -0.5122 0.8589
vn 0.7440 -0.5115 -0.4299
vn -0.8657 -0.0378 -0.4992
vn 0.8654 -0.0363 -0.4997
vn -0.5200 -0.7998 -0.2999
vn 0.8657 -0.0378 0.4992
vn 0.0000 -0.5122 -0.8589
vn -0.7439 -0.5119 -0.4296
vn 0.0000 -0.0375 0.9993
vn 0.0000 -0.7994 0.6007
vn 0.7439 -0.5119 0.4296
vn -0.7440 -0.5115 0.4299
vn -0.8654 -0.0363 0.4997
vn 0.5200 -0.7998 0.2999
vn 0.5193 -0.8002 -0.3000
vn -0.5193 -0.8002 0.3000
vn 0.0000 -0.0375 -0.9993
vn 0.0000 -0.7994 -0.6007
vn 0.7439 -0.5119 -0.4296
vn -0.8654 -0.0363 -0.4997
vn 0.8657 -0.0378 -0.4992
vn -0.5193 -0.8002 -0.3000
vn 0.8654 -0.0363 0.4997
vn -0.7440 -0.5115 -0.4299
vn 0.7440 -0.5115 0.4299
vn -0.7439 -0.5119 0.4296
vn -0.8657 -0.0378 0.4992
vn 0.5193 -0.8002 0.3000
vn 0.5200 -0.7998 -0.2999
vn -0.5200 -0.7998 0.2999
usemtl tex_0.001
s off
f 94/189/65 96/190/65 93/191/65
f 98/192/66 100/193/66 97/194/66
f 97/194/67 102/195/67 101/196/67
f 103/197/68 99/198/68 98/192/68
f 106/199/69 108/200/69 105/201/69
f 105/201/70 104/202/70 103/197/70
f 101/196/71 107/203/71 106/199/71
f 95/204/65 110/205/65 109/206/65
f 94/189/65 95/204/65 96/190/65
f 98/192/66 99/198/66 100/193/66
f 97/194/67 100/193/67 102/195/67
f 103/197/68 104/202/68 99/198/68
f 106/199/69 107/203/69 108/200/69
f 105/201/70 108/200/70 104/202/70
f 101/196/71 102/195/71 107/203/71
f 95/204/65 94/189/65 110/205/65
usemtl tex_1
f 112/207/65 114/208/65 111/209/65
f 116/210/65 118/211/65 115/212/65
f 106/213/72 103/214/72 101/215/72
f 99/216/72 119/217/72 120/218/72
f 111/209/65 122/219/65 121/220/65
f 123/221/65 117/222/65 116/210/65
f 98/223/72 101/215/72 103/214/72
f 108/224/72 119/217/72 104/225/72
f 107/226/72 125/227/72 108/224/72
f 107/226/72 127/228/72 126/229/72
f 123/221/65 122/219/65 124/230/65
f 112/207/65 118/211/65 113/231/65
f 99/216/72 128/232/72 100/233/72
f 100/233/72 127/228/72 102/234/72
f 112/207/65 113/231/65 114/208/65
f 116/210/65 117/222/65 118/211/65
f 106/213/72 105/235/72 103/214/72
f 99/216/72 104/225/72 119/217/72
f 111/209/65 114/208/65 122/219/65
f 123/221/65 124/230/65 117/222/65
f 98/223/72 97/236/72 101/215/72
f 108/224/72 125/227/72 119/217/72
f 107/226/72 126/229/72 125/227/72
f 107/226/72 102/234/72 127/228/72
f 123/221/65 121/220/65 122/219/65
f 112/207/65 115/212/65 118/211/65
f 99/216/72 120/218/72 128/232/72
f 100/233/72 128/232/72 127/228/72
usemtl tex_2
f 94/237/73 111/238/73 121/239/73
f 94/237/74 123/240/74 110/241/74
f 110/241/75 116/242/75 109/243/75
f 95/244/76 116/242/76 115/245/76
f 95/244/77 112/246/77 96/247/77
f 96/247/78 111/238/78 93/248/78
f 94/237/79 93/248/79 111/238/79
f 94/237/80 121/239/80 123/240/80
f 110/241/75 123/240/75 116/242/75
f 95/244/81 109/243/81 116/242/81
f 95/244/82 115/245/82 112/246/82
f 96/247/78 112/246/78 111/238/78
usemtl tex_3
f 130/249/83 132/250/83 129/251/83
f 134/252/84 136/253/84 133/254/84
f 137/255/85 119/256/85 125/257/85
f 135/258/86 127/259/86 136/260/86
f 118/261/87 140/262/87 113/263/87
f 131/264/88 127/265/88 128/266/88
f 140/262/89 135/267/89 134/252/89
f 140/262/90 138/268/90 137/269/90
f 131/270/91 120/271/91 132/272/91
f 124/273/92 129/251/92 117/274/92
f 130/275/93 136/276/93 131/277/93
f 129/278/94 138/279/94 139/280/94
f 132/281/95 119/282/95 138/283/95
f 122/284/96 130/275/96 124/285/96
f 122/286/97 134/252/97 133/254/97
f 118/287/98 129/278/98 139/280/98
f 137/255/99 126/288/99 135/258/99
f 113/263/100 134/252/100 114/289/100
f 130/249/83 131/290/83 132/250/83
f 134/252/101 135/267/101 136/253/101
f 137/255/102 138/291/102 119/256/102
f 135/258/103 126/288/103 127/259/103
f 118/261/104 139/292/104 140/262/104
f 131/264/105 136/293/105 127/265/105
f 140/262/89 137/269/89 135/267/89
f 140/262/106 139/292/106 138/268/106
f 131/270/91 128/294/91 120/271/91
f 124/273/92 130/249/92 129/251/92
f 130/275/107 133/295/107 136/276/107
f 129/278/108 132/296/108 138/279/108
f 132/281/109 120/297/109 119/282/109
f 122/284/110 133/295/110 130/275/110
f 122/286/111 114/289/111 134/252/111
f 118/287/112 117/298/112 129/278/112
f 137/255/99 125/257/99 126/288/99
f 113/263/100 140/262/100 134/252/100
