# 3ds Max Wavefront OBJ Exporter v0.97b - (c)2007 guruware
# File Created: 07.07.2018 23:03:29

mtllib light_floor.mtl

#
# object light_floor
#

v  8.0000 13.0000 -0.0000
v  9.0000 12.0000 -0.0000
v  9.0000 12.0000 -3.0000
v  8.0000 13.0000 -3.0000
v  9.0000 3.0000 -3.0000
v  9.0000 1.0000 -3.0000
v  8.0000 0.0000 -3.0000
v  13.0000 4.0000 -3.0000
v  12.0000 3.0000 -3.0000
v  13.0000 9.0000 -3.0000
v  12.0000 10.0000 -3.0000
v  9.0000 10.0000 -3.0000
v  -8.0000 0.0000 -3.0000
v  -9.0000 1.0000 -3.0000
v  -9.0000 3.0000 -3.0000
v  -9.0000 10.0000 -3.0000
v  -12.0000 3.0000 -3.0000
v  -13.0000 4.0000 -3.0000
v  -13.0000 9.0000 -3.0000
v  -12.0000 10.0000 -3.0000
v  -8.0000 13.0000 -3.0000
v  -9.0000 12.0000 -3.0000
v  9.0000 10.0000 -0.0000
v  12.0000 10.0000 -0.0000
v  13.0000 9.0000 -0.0000
v  13.0000 4.0000 -0.0000
v  12.0000 3.0000 -0.0000
v  9.0000 3.0000 -0.0000
v  9.0000 1.0000 -0.0000
v  8.0000 0.0000 -0.0000
v  -8.0000 0.0000 -0.0000
v  -9.0000 1.0000 -0.0000
v  -9.0000 3.0000 -0.0000
v  -12.0000 3.0000 -0.0000
v  -13.0000 4.0000 -0.0000
v  -13.0000 9.0000 -0.0000
v  -12.0000 10.0000 -0.0000
v  -9.0000 10.0000 -0.0000
v  -9.0000 12.0000 -0.0000
v  -8.0000 13.0000 -0.0000
# 40 vertices

vn 0.7071 0.7071 -0.0000
vn 0.0000 0.0000 -1.0000
vn 1.0000 0.0000 -0.0000
vn 0.0000 1.0000 -0.0000
vn 0.7071 -0.7071 -0.0000
vn 0.0000 -1.0000 -0.0000
vn -0.7071 -0.7071 -0.0000
vn -1.0000 0.0000 -0.0000
vn -0.7071 0.7071 -0.0000
# 9 vertex normals

vt 0.4794 0.2513
vt 0.4312 0.2513
vt 0.4312 0.1361
vt 0.4794 0.1361
vt 0.8396 0.8738
vt 0.8396 0.9492
vt 0.8022 0.9869
vt 0.9891 0.8361
vt 0.9518 0.8738
vt 0.9891 0.6476
vt 0.9518 0.6099
vt 0.8396 0.6099
vt 0.2041 0.9869
vt 0.1667 0.9492
vt 0.1667 0.8738
vt 0.1667 0.6099
vt 0.0545 0.8738
vt 0.0171 0.8361
vt 0.0171 0.6476
vt 0.0545 0.6099
vt 0.8022 0.4969
vt 0.8396 0.5346
vt 0.2041 0.4969
vt 0.1667 0.5346
vt 0.3712 0.2513
vt 0.3712 0.1361
vt 0.2560 0.2513
vt 0.2560 0.1361
vt 0.2017 0.2513
vt 0.2017 0.1361
vt 0.0659 0.2513
vt 0.0659 0.1361
vt 0.0116 0.2513
vt 0.0116 0.1361
vt 0.9884 0.3769
vt 0.8732 0.3769
vt 0.8732 0.2616
vt 0.9884 0.2616
vt 0.7963 0.3769
vt 0.7963 0.2616
vt 0.7420 0.3769
vt 0.7420 0.2616
vt 0.1272 0.3769
vt 0.1272 0.2616
vt 0.0888 0.3769
vt 0.0888 0.2616
vt 0.0119 0.3769
vt 0.0119 0.2616
vt 0.5633 0.1277
vt 0.4481 0.1277
vt 0.4481 0.0125
vt 0.5633 0.0125
vt 0.3938 0.1277
vt 0.3938 0.0125
vt 0.2580 0.1277
vt 0.2580 0.0125
vt 0.2037 0.1277
vt 0.2037 0.0125
vt 0.0884 0.1277
vt 0.0884 0.0125
vt 0.0116 0.1277
vt 0.0116 0.0125
vt 0.9945 0.2513
vt 0.9591 0.2513
vt 0.9591 0.1361
vt 0.9945 0.1361
# 66 texture coords

o light_floor
g light_floor
usemtl light_floor_diffuse_shader
s 1
f 1/1/1 2/2/1 3/3/1 
f 3/3/1 4/4/1 1/1/1 
f 5/5/2 6/6/2 7/7/2 
f 8/8/2 9/9/2 5/5/2 
f 8/8/2 5/5/2 10/10/2 
f 5/5/2 11/11/2 10/10/2 
f 5/5/2 12/12/2 11/11/2 
f 5/5/2 7/7/2 12/12/2 
f 7/7/2 13/13/2 12/12/2 
f 13/13/2 14/14/2 12/12/2 
f 14/14/2 15/15/2 12/12/2 
f 15/15/2 16/16/2 12/12/2 
f 15/15/2 17/17/2 16/16/2 
f 17/17/2 18/18/2 16/16/2 
f 18/18/2 19/19/2 16/16/2 
f 19/19/2 20/20/2 16/16/2 
f 4/21/2 3/22/2 12/12/2 
f 21/23/2 4/21/2 12/12/2 
f 22/24/2 21/23/2 12/12/2 
f 16/16/2 22/24/2 12/12/2 
f 2/2/3 23/25/3 12/26/3 
f 12/26/3 3/3/3 2/2/3 
f 23/25/4 24/27/4 11/28/4 
f 11/28/4 12/26/4 23/25/4 
f 24/27/1 25/29/1 10/30/1 
f 10/30/1 11/28/1 24/27/1 
f 25/29/3 26/31/3 8/32/3 
f 8/32/3 10/30/3 25/29/3 
f 26/31/5 27/33/5 9/34/5 
f 9/34/5 8/32/5 26/31/5 
f 27/35/6 28/36/6 5/37/6 
f 5/37/6 9/38/6 27/35/6 
f 28/36/3 29/39/3 6/40/3 
f 6/40/3 5/37/3 28/36/3 
f 29/39/5 30/41/5 7/42/5 
f 7/42/5 6/40/5 29/39/5 
f 30/41/6 31/43/6 13/44/6 
f 13/44/6 7/42/6 30/41/6 
f 31/43/7 32/45/7 14/46/7 
f 14/46/7 13/44/7 31/43/7 
f 32/45/8 33/47/8 15/48/8 
f 15/48/8 14/46/8 32/45/8 
f 33/49/6 34/50/6 17/51/6 
f 17/51/6 15/52/6 33/49/6 
f 34/50/7 35/53/7 18/54/7 
f 18/54/7 17/51/7 34/50/7 
f 35/53/8 36/55/8 19/56/8 
f 19/56/8 18/54/8 35/53/8 
f 36/55/9 37/57/9 20/58/9 
f 20/58/9 19/56/9 36/55/9 
f 37/57/4 38/59/4 16/60/4 
f 16/60/4 20/58/4 37/57/4 
f 38/59/8 39/61/8 22/62/8 
f 22/62/8 16/60/8 38/59/8 
f 39/63/9 40/64/9 21/65/9 
f 21/65/9 22/66/9 39/63/9 
f 40/64/4 1/1/4 4/4/4 
f 4/4/4 21/65/4 40/64/4 
# 0 polygons - 58 triangles

