# Blender v3.0.0 OBJ File: ''
# www.blender.org
mtllib MEDISM.mtl
o Object_0
v 551.000000 1957.000000 250.000092
v 441.000000 2467.000000 249.000107
v 441.000000 2467.000000 -951.999878
v -551.000000 1957.000000 1264.000122
v -551.000000 1957.000000 250.000092
v -441.000000 2467.000000 249.000107
v 551.000000 1957.000000 1264.000122
v -441.000000 2467.000000 -951.999878
v -551.000000 1957.000000 -981.999939
v 551.000000 1957.000122 -2215.000000
v 551.000000 1957.000000 -981.999939
v 441.000000 2467.000000 2278.000000
v -441.000000 2467.000000 2278.000000
v -441.000000 -1615.000000 243.999924
v -441.000000 -1615.000122 2278.000000
v 441.000000 -1615.000122 2278.000000
v 441.000000 -1615.000000 243.999924
v -551.000000 -1105.000000 249.999954
v -551.000000 -1105.000122 2278.000000
v -441.000000 2467.000000 -2215.000000
v 441.000000 2467.000000 -2215.000000
v -551.000000 1956.999878 2278.000000
v 551.000000 -1105.000122 2278.000000
v 551.000000 -1105.000000 249.999954
v -551.000000 1957.000122 -2215.000000
v 551.000000 1956.999878 2278.000000
v 551.000000 -34.000011 250.000000
v 551.000000 -37.000053 1264.000000
v 551.000000 -40.000099 2278.000000
v 551.000000 -30.999956 -982.000000
v -551.000000 -30.999956 -982.000000
v -551.000000 -28.999903 -2215.000000
v -551.000000 -34.000011 250.000000
v 551.000000 -28.999903 -2215.000000
v -551.000000 -40.000099 2278.000000
v -551.000000 -37.000053 1264.000000
v 0.000000 213.000092 -2214.000000
v 0.000000 1957.000122 -2215.000000
v 441.000000 -1615.000000 -410.000061
v 441.000000 -1614.999878 -2215.000000
v -441.000000 -1614.999878 -2215.000000
v -441.000000 -1615.000000 -410.000061
v 551.000000 -1104.999878 -2215.000000
v 0.000000 -1341.999878 -2215.000000
v -551.000000 -1104.999878 -2215.000000
v -430.000000 -134.999878 -2740.000000
v -430.000000 -974.999878 -2740.000000
v 430.000000 -974.999878 -2740.000000
v 430.000000 -134.999878 -2740.000000
v 0.000000 20.000120 -2740.000000
v 0.000000 -1133.999878 -2740.000000
vt 0.546875 0.062500
vt 0.546875 0.968750
vt 0.750000 0.968750
vt 0.484375 0.031250
vt 0.953125 0.031250
vt 0.953125 0.968750
vt 0.953125 0.968750
vt 0.953125 0.031250
vt 0.484375 0.031250
vt 0.750000 0.062500
vt 0.750000 0.968750
vt 0.546875 0.062500
vt 0.953125 0.062500
vt 0.750000 0.062500
vt 0.015625 0.187500
vt 0.953125 0.187500
vt 0.015625 0.187500
vt 0.953125 0.968750
vt 0.953125 0.187500
vt 0.953125 0.031250
vt 0.953125 0.968750
vt 0.015625 0.968750
vt 0.484375 0.031250
vt 0.109375 0.968750
vt 0.500000 0.968750
vt 0.015625 0.968750
vt 0.015625 0.031250
vt 0.015625 0.968750
vt 0.953125 0.968750
vt 0.953125 0.031250
vt 0.750000 0.968750
vt 0.953125 0.968750
vt 0.953125 0.062500
vt 0.015625 0.968750
vt 0.015625 0.031250
vt 0.953125 0.968750
vt 0.546875 0.062500
vt 0.750000 0.968750
vt 0.546875 0.968750
vt 0.015625 0.031250
vt 0.015625 0.031250
vt 0.015625 0.968750
vt 0.953125 0.062500
vt 0.015625 0.968750
vt 0.125000 0.062500
vt 0.484375 0.968750
vt 0.953125 0.031250
vt 0.484375 0.031250
vt 0.015625 0.968750
vt 0.953125 0.968750
vt 0.015625 0.031250
vt 0.484375 0.031250
vt 0.015625 0.968750
vt 0.484375 0.968750
vt 0.015625 0.031250
vt 0.484375 0.968750
vt 0.484375 0.031250
vt 0.953125 0.968750
vt 0.953125 0.031250
vt 0.015625 0.031250
vt 0.015625 0.968750
vt 0.953125 0.031250
vt 0.953125 0.968750
vt 0.015625 0.968750
vt 0.484375 0.031250
vt 0.484375 0.968750
vt 0.015625 0.031250
vt 0.468750 0.140625
vt 0.937500 0.031250
vt 0.937500 0.953125
vt 0.000000 0.953125
vt 0.468750 0.953125
vt 0.031250 0.265625
vt 0.906250 0.984375
vt 0.031250 0.984375
vt 0.937500 0.953125
vt 0.000000 0.953125
vt 0.000000 0.031250
vt 0.906250 0.265625
vt 0.937500 0.968750
vt 0.937500 0.562500
vt 0.000000 0.562500
vt 0.000000 0.968750
vt 0.031250 0.515625
vt 0.937500 0.062500
vt 0.000000 0.062500
vt 0.937500 0.515625
vt 0.468750 0.812500
vt 0.468750 0.062500
vt 0.234375 0.468750
vt 0.015625 0.062500
vt 0.015625 0.812500
vt 0.734375 0.468750
vt 0.500000 0.468750
vt 0.500000 0.968750
vt 0.500000 0.468750
vt 0.093750 0.937500
vt 0.953125 0.937500
vt 0.734375 0.250000
vt 0.968750 0.031250
vt 0.968750 0.968750
vt 0.468750 0.968750
vt 0.468750 0.968750
vt 0.968750 0.968750
vt 0.968750 0.031250
vt 0.093750 0.250000
vt 0.734375 0.250000
vt 0.953125 0.937500
vt 0.093750 0.937500
vt 0.953125 0.250000
vt 0.015625 0.031250
vt 0.015625 0.968750
vt 0.093750 0.250000
vt 0.953125 0.250000
vt 0.140625 0.875000
vt 0.578125 0.218750
vt 0.140625 0.218750
vt 0.140625 0.875000
vt 0.578125 0.218750
vt 0.140625 0.218750
vt 0.015625 0.968750
vt 0.578125 0.875000
vt 0.578125 0.875000
vt 0.015625 0.031250
vt 0.015625 0.937500
vt 0.484375 0.937500
vt 0.953125 0.031250
vt 0.953125 0.968750
vt 0.484375 0.937500
vt 0.015625 0.937500
vt 0.015625 0.031250
vt 0.953125 0.968750
vt 0.953125 0.031250
vt 0.093750 0.156250
vt 0.843750 0.843750
vt 0.093750 0.843750
vt 0.468750 0.968750
vt 0.468750 0.031250
vt 0.843750 0.156250
vt 0.937500 0.031250
vt 0.000000 0.484375
vt 0.937500 0.484375
vt 0.937500 0.937500
vt 0.000000 0.359375
vt 0.000000 0.937500
vt 0.000000 0.031250
vt 0.937500 0.359375
vt 0.000000 0.937500
vt 0.937500 0.875000
vt 0.937500 0.125000
vt 0.937500 0.125000
vt 0.937500 0.125000
vt 0.000000 0.937500
vt 0.937500 0.875000
vt 0.937500 0.125000
vt 0.000000 0.937500
vt 0.000000 0.031250
vt 0.937500 0.875000
vt 0.000000 0.937500
vt 0.000000 0.031250
vt 0.000000 0.031250
vt 0.937500 0.875000
vn -0.9775 -0.2108 0.0000
vn 0.9775 -0.2108 0.0000
vn 0.0000 -1.0000 0.0000
vn 0.0000 1.0000 0.0000
vn 0.9775 0.2108 0.0000
vn -0.9775 0.2108 0.0000
vn -1.0000 0.0000 0.0000
vn 1.0000 -0.0000 0.0000
vn 0.0018 0.0000 1.0000
vn 0.0000 0.0006 1.0000
vn -0.0018 0.0000 1.0000
vn 0.0000 0.0000 -1.0000
vn 0.0000 0.0000 1.0000
vn -0.3205 -0.8893 0.3263
vn 0.3871 -0.8824 0.2674
vn 0.3205 -0.8893 0.3263
vn -0.9745 0.0000 0.2246
vn 0.9745 0.0000 0.2246
vn 0.3713 0.8632 0.3420
vn -0.3871 -0.8824 0.2674
vn -0.3713 0.8632 0.3420
vn 0.3311 0.8953 0.2980
vn -0.3311 0.8953 0.2980
usemtl tex_0
s off
f 1/1/1 2/2/1 3/3/1
f 4/4/2 5/5/2 6/6/2
f 2/7/1 1/8/1 7/9/1
f 8/10/2 5/11/2 9/12/2
f 3/3/1 10/13/1 11/14/1
f 12/15/3 6/6/3 2/16/3
f 15/17/4 17/18/4 14/19/4
f 14/20/5 18/21/5 19/22/5
f 21/23/3 8/24/3 20/25/3
f 13/26/2 22/27/2 4/4/2
f 23/28/6 24/29/6 17/30/6
f 25/31/2 20/32/2 8/33/2
f 12/34/1 2/7/1 7/9/1
f 7/9/1 26/35/1 12/34/1
f 3/3/1 21/36/1 10/13/1
f 8/37/2 6/38/2 5/39/2
f 11/14/1 1/1/1 3/3/1
f 17/30/6 16/40/6 23/28/6
f 19/41/5 15/42/5 14/20/5
f 9/43/2 25/31/2 8/10/2
f 4/4/2 6/6/2 13/26/2
f 12/15/3 13/26/3 6/6/3
f 15/17/4 16/44/4 17/18/4
f 21/23/3 3/45/3 8/24/3
usemtl tex_11_additive
f 7/46/7 27/47/7 28/48/7
f 28/48/7 26/49/7 7/46/7
f 7/46/7 1/50/7 27/47/7
f 28/48/7 29/51/7 26/49/7
usemtl tex_12
f 30/52/7 1/53/7 11/54/7
f 32/55/8 9/56/8 31/57/8
f 5/58/8 31/57/8 9/56/8
f 11/54/7 34/59/7 30/52/7
f 30/52/7 27/60/7 1/53/7
f 32/55/8 25/61/8 9/56/8
f 5/58/8 33/62/8 31/57/8
f 11/54/7 10/63/7 34/59/7
usemtl tex_13
f 22/64/8 36/65/8 4/66/8
f 33/62/8 4/66/8 36/65/8
f 22/64/8 35/67/8 36/65/8
f 33/62/8 5/58/8 4/66/8
usemtl tex_14
f 37/68/9 34/69/9 10/70/9
f 10/71/10 38/72/10 37/68/10
f 40/73/4 42/74/4 39/75/4
f 37/68/10 38/72/10 25/76/10
f 25/77/11 32/78/11 37/68/11
f 40/73/4 41/79/4 42/74/4
usemtl tex_2_additive
f 12/80/12 26/81/12 22/82/12
f 22/82/12 13/83/12 12/80/12
f 16/84/12 19/85/12 23/86/12
f 16/84/12 15/87/12 19/85/12
usemtl tex_4_additive
f 40/88/13 43/89/13 44/90/13
f 44/90/13 45/91/13 41/92/13
f 41/92/13 40/88/13 44/90/13
f 38/93/13 10/94/13 21/95/13
f 20/25/13 25/96/13 38/93/13
f 38/93/13 21/95/13 20/32/13
usemtl tex_5
f 45/97/5 18/98/5 42/99/5
f 18/100/8 33/101/8 36/102/8
f 28/103/7 27/104/7 24/105/7
f 42/99/5 41/106/5 45/97/5
f 39/107/6 24/108/6 43/109/6
f 18/98/5 14/110/5 42/99/5
f 24/105/7 23/111/7 28/103/7
f 23/111/7 29/112/7 28/103/7
f 43/109/6 40/113/6 39/107/6
f 39/107/6 17/114/6 24/108/6
f 2/115/3 8/116/3 3/117/3
f 14/118/4 39/119/4 42/120/4
f 19/41/8 18/100/8 36/102/8
f 36/102/8 35/121/8 19/41/8
f 2/115/3 6/122/3 8/116/3
f 14/118/4 17/123/4 39/119/4
usemtl tex_6
f 24/124/7 27/125/7 30/126/7
f 45/127/8 32/128/8 31/129/8
f 31/129/8 33/130/8 18/131/8
f 18/131/8 45/127/8 31/129/8
f 30/126/7 34/132/7 43/133/7
f 43/133/7 24/124/7 30/126/7
usemtl tex_7
f 47/134/13 49/135/13 46/136/13
f 49/135/13 50/137/13 46/136/13
f 47/134/13 51/138/13 48/139/13
f 47/134/13 48/139/13 49/135/13
usemtl tex_8
f 23/140/12 35/141/12 29/142/12
f 26/143/12 35/144/12 22/145/12
f 23/140/12 19/146/12 35/141/12
f 26/143/12 29/147/12 35/144/12
usemtl tex_9
f 37/148/14 50/149/14 49/150/14
f 37/148/15 32/78/15 46/151/15
f 46/151/16 50/149/16 37/148/16
f 48/152/17 34/153/17 49/154/17
f 47/155/18 32/156/18 45/157/18
f 51/158/19 45/157/19 44/159/19
f 49/150/20 34/160/20 37/148/20
f 43/161/21 51/158/21 44/159/21
f 48/152/17 43/161/17 34/153/17
f 47/155/18 46/162/18 32/156/18
f 51/158/22 47/155/22 45/157/22
f 43/161/23 48/152/23 51/158/23
o Object_1
v -501.000000 2731.000000 -1154.999878
v -501.000000 2952.000000 -1153.999878
v -501.000000 2952.000000 -606.999878
v -501.000000 2731.000000 -607.999878
v 230.000000 2478.000000 -606.999878
v 230.000000 2952.000000 -606.999878
v 67.000000 2952.000000 -606.999878
v -240.000000 2731.000000 -607.999878
v -501.000000 2731.000000 402.000122
v -240.000000 2731.000000 402.000122
v -240.000000 2731.000000 -46.999882
v -501.000000 2731.000000 -46.999882
v 230.000000 2478.000000 -44.999893
v 230.000000 2952.000000 -47.999870
v -501.000000 2952.000000 401.000122
v -501.000000 2952.000000 -47.999870
v -240.000000 2478.000000 -606.999878
v 67.000000 2952.000000 401.000122
v 67.000000 2952.000000 -47.999870
v -240.000000 2478.000000 -44.999893
v 67.000000 3466.000000 401.000153
v -501.000000 3466.000000 401.000153
v -501.000000 3466.000000 -47.999847
v 67.000000 3466.000000 -47.999847
v -240.000000 2731.000000 -1154.999878
v 67.000000 2952.000000 -1153.999878
v -501.000000 3466.000000 -606.999878
v 67.000000 3466.000000 -606.999878
vt 0.312500 0.609375
vt 0.000000 0.390625
vt 0.312500 0.390625
vt 0.468750 0.031250
vt 0.000000 0.406250
vt 0.000000 0.234375
vt 0.375000 0.156250
vt 0.468750 0.375000
vt 0.375000 0.375000
vt 0.000000 0.406250
vt 0.000000 0.031250
vt 0.062500 0.609375
vt 0.875000 0.390625
vt 0.875000 0.609375
vt 0.000000 0.031250
vt 0.875000 0.609375
vt 0.062500 0.390625
vt 0.875000 0.390625
vt 0.468750 0.234375
vt 0.812500 0.609375
vt 0.125000 0.968750
vt 0.125000 0.609375
vt 0.468750 0.156250
vt 0.375000 0.375000
vt 0.375000 0.156250
vt 0.125000 0.609375
vt 0.812500 0.968750
vt 0.125000 0.968750
vt 0.968750 0.453125
vt 0.750000 0.265625
vt 0.500000 0.453125
vt 0.812500 0.968750
vt 0.125000 0.609375
vt 0.812500 0.609375
vt 0.000000 0.609375
vt 0.343750 0.390625
vt 0.343750 0.609375
vt 0.468750 0.375000
vt 0.375000 0.156250
vt 0.468750 0.156250
vt 0.000000 0.031250
vt 0.437500 0.406250
vt 0.000000 0.406250
vt 0.000000 0.390625
vt 0.343750 0.609375
vt 0.000000 0.609375
vt 0.312500 0.609375
vt 0.000000 0.390625
vt 0.312500 0.390625
vt 0.875000 0.609375
vt 0.500000 0.390625
vt 0.875000 0.390625
vt 0.468750 0.031250
vt 0.937500 0.406250
vt 0.468750 0.015625
vt 0.937500 0.015625
vt 0.031250 0.625000
vt 0.062500 0.625000
vt 0.062500 0.953125
vt 0.031250 0.625000
vt 0.062500 0.625000
vt 0.062500 0.953125
vt 0.000000 0.609375
vt 0.343750 0.390625
vt 0.000000 0.390625
vt 0.437500 0.031250
vt 0.468750 0.406250
vt 0.125000 0.968750
vt 0.812500 0.609375
vt 0.812500 0.968750
vt 0.000000 0.609375
vt 0.468750 0.406250
vt 0.468750 0.156250
vt 0.062500 0.390625
vt 0.062500 0.609375
vt 0.468750 0.375000
vt 0.812500 0.609375
vt 0.968750 0.265625
vt 0.000000 0.390625
vt 0.375000 0.375000
vt 0.437500 0.031250
vt 0.000000 0.609375
vt 0.000000 0.609375
vt 0.468750 0.406250
vt 0.437500 0.406250
vt 0.125000 0.609375
vn 1.0000 0.0000 0.0000
vn -0.0026 -0.0009 1.0000
vn 0.0000 1.0000 0.0000
vn -1.0000 -0.0000 0.0000
vn 0.0000 0.0040 1.0000
vn -0.5842 0.8116 0.0000
vn 0.0000 -1.0000 0.0000
vn 0.0000 -0.0045 1.0000
vn 0.0000 -0.0045 -1.0000
vn 0.0000 -0.0079 -1.0000
vn -0.9532 -0.3023 0.0000
vn 0.0000 0.0000 1.0000
vn 0.0000 0.0000 -1.0000
vn 0.0010 -0.0060 -1.0000
vn 0.0000 -0.0063 -1.0000
usemtl tex_15
s off
f 53/163/24 55/164/24 52/165/24
f 56/166/25 58/167/25 59/168/25
f 61/169/26 63/170/26 60/171/26
f 65/172/27 56/166/27 64/173/27
f 66/174/24 63/175/24 67/176/24
f 59/168/28 68/177/28 56/166/28
f 69/178/29 62/179/29 61/180/29
f 62/181/24 68/177/24 59/168/24
f 73/182/30 75/183/30 72/184/30
f 63/185/26 59/186/26 55/187/26
f 66/188/24 74/189/24 73/190/24
f 53/191/31 76/192/31 77/193/31
f 72/194/27 70/195/27 69/196/27
f 77/197/29 59/198/29 58/199/29
f 52/200/26 59/201/26 76/202/26
f 74/203/24 54/204/24 78/205/24
f 77/206/30 54/207/30 53/208/30
f 54/209/24 63/210/24 55/211/24
f 66/212/32 61/213/32 60/214/32
f 64/173/33 71/215/33 62/181/33
f 75/216/34 57/217/34 65/218/34
f 58/219/35 57/220/35 79/221/35
f 70/222/36 75/223/36 65/224/36
f 78/225/35 58/226/35 79/227/35
f 78/205/30 75/228/30 74/203/30
f 70/229/37 64/173/37 62/181/37
f 72/230/36 66/231/36 73/232/36
f 53/163/24 54/233/24 55/164/24
f 56/166/35 57/234/35 58/167/35
f 61/169/26 62/235/26 63/170/26
f 65/172/27 57/234/27 56/166/27
f 66/174/24 60/236/24 63/175/24
f 69/178/29 70/237/29 62/179/29
f 62/181/24 71/215/24 68/177/24
f 73/182/30 74/189/30 75/183/30
f 63/185/26 62/238/26 59/186/26
f 66/188/24 67/239/24 74/189/24
f 53/191/31 52/240/31 76/192/31
f 72/194/27 75/183/27 70/195/27
f 77/197/29 76/241/29 59/198/29
f 52/200/26 55/242/26 59/201/26
f 74/203/24 67/243/24 54/204/24
f 77/206/30 58/226/30 54/207/30
f 54/209/24 67/244/24 63/210/24
f 66/212/32 69/245/32 61/213/32
f 75/216/34 79/246/34 57/217/34
f 78/225/35 54/207/35 58/226/35
f 78/205/30 79/247/30 75/228/30
f 70/229/38 65/172/38 64/173/38
f 72/230/36 69/248/36 66/231/36
o Object_2
v -501.000000 -1884.404907 1406.876343
v -501.000000 -2105.404297 1405.768433
v -501.000000 -2105.137207 858.768433
v -501.000000 -1884.137695 859.876404
v 230.000000 -1631.137207 858.999939
v 230.000000 -2105.137207 858.768433
v 67.000000 -2105.137207 858.768433
v -240.000000 -1884.137695 859.876404
v -501.000000 -1883.644531 -150.123611
v -240.000000 -1883.644531 -150.123611
v -240.000000 -1883.863770 298.876373
v -501.000000 -1883.863770 298.876373
v 230.000000 -1630.862793 296.999939
v 230.000000 -2104.864258 299.768463
v -501.000000 -2104.645020 -149.231537
v -501.000000 -2104.864258 299.768463
v -240.000000 -1631.137207 858.999939
v 67.000000 -2104.645020 -149.231537
v 67.000000 -2104.864258 299.768463
v -240.000000 -1630.862793 296.999939
v 67.000000 -2618.645020 -149.482544
v -501.000000 -2618.645020 -149.482544
v -501.000000 -2618.864258 299.517456
v 67.000000 -2618.864258 299.517456
v -240.000000 -1884.404907 1406.876343
v 67.000000 -2105.404297 1405.768433
v -501.000000 -2619.137207 858.517456
v 67.000000 -2619.137207 858.517456
vt 0.312500 0.609375
vt 0.000000 0.390625
vt 0.312500 0.390625
vt 0.468750 0.031250
vt 0.000000 0.406250
vt 0.000000 0.234375
vt 0.375000 0.156250
vt 0.468750 0.375000
vt 0.375000 0.375000
vt 0.000000 0.406250
vt 0.000000 0.031250
vt 0.062500 0.609375
vt 0.875000 0.390625
vt 0.875000 0.609375
vt 0.000000 0.031250
vt 0.875000 0.609375
vt 0.062500 0.390625
vt 0.875000 0.390625
vt 0.468750 0.234375
vt 0.812500 0.609375
vt 0.125000 0.968750
vt 0.125000 0.609375
vt 0.468750 0.156250
vt 0.375000 0.375000
vt 0.375000 0.156250
vt 0.125000 0.609375
vt 0.812500 0.968750
vt 0.125000 0.968750
vt 0.968750 0.453125
vt 0.750000 0.265625
vt 0.500000 0.453125
vt 0.812500 0.968750
vt 0.125000 0.609375
vt 0.812500 0.609375
vt 0.000000 0.609375
vt 0.343750 0.390625
vt 0.343750 0.609375
vt 0.468750 0.375000
vt 0.375000 0.156250
vt 0.468750 0.156250
vt 0.000000 0.406250
vt 0.437500 0.031250
vt 0.437500 0.406250
vt 0.000000 0.390625
vt 0.343750 0.609375
vt 0.000000 0.609375
vt 0.312500 0.609375
vt 0.000000 0.390625
vt 0.312500 0.390625
vt 0.875000 0.609375
vt 0.500000 0.390625
vt 0.875000 0.390625
vt 0.468750 0.031250
vt 0.937500 0.406250
vt 0.468750 0.015625
vt 0.937500 0.015625
vt 0.031250 0.625000
vt 0.062500 0.625000
vt 0.062500 0.953125
vt 0.031250 0.625000
vt 0.062500 0.625000
vt 0.062500 0.953125
vt 0.000000 0.609375
vt 0.343750 0.390625
vt 0.000000 0.390625
vt 0.437500 0.031250
vt 0.000000 0.031250
vt 0.468750 0.406250
vt 0.125000 0.968750
vt 0.812500 0.609375
vt 0.812500 0.968750
vt 0.000000 0.609375
vt 0.468750 0.406250
vt 0.468750 0.156250
vt 0.062500 0.390625
vt 0.062500 0.609375
vt 0.468750 0.375000
vt 0.812500 0.609375
vt 0.968750 0.265625
vt 0.000000 0.390625
vt 0.375000 0.375000
vt 0.000000 0.609375
vt 0.000000 0.609375
vt 0.468750 0.406250
vt 0.437500 0.406250
vt 0.125000 0.609375
vn 1.0000 0.0000 0.0000
vn -0.0026 0.0014 -1.0000
vn 0.0000 -1.0000 -0.0005
vn -1.0000 0.0000 0.0000
vn 0.0000 -0.0035 -1.0000
vn -0.5842 -0.8116 -0.0004
vn 0.0000 1.0000 0.0005
vn 0.0000 0.0050 -1.0000
vn 0.0000 0.0040 1.0000
vn 0.0000 0.0074 1.0000
vn -0.9532 0.3023 0.0001
vn 0.0000 0.0005 -1.0000
vn 0.0000 -0.0005 1.0000
vn 0.0010 0.0055 1.0000
vn 0.0000 0.0058 1.0000
usemtl tex_15
s off
f 81/249/39 83/250/39 80/251/39
f 84/252/40 86/253/40 87/254/40
f 89/255/41 91/256/41 88/257/41
f 93/258/42 84/252/42 92/259/42
f 94/260/39 91/261/39 95/262/39
f 87/254/43 96/263/43 84/252/43
f 97/264/44 90/265/44 89/266/44
f 90/267/39 96/263/39 87/254/39
f 101/268/45 103/269/45 100/270/45
f 91/271/41 87/272/41 83/273/41
f 94/274/39 102/275/39 101/276/39
f 81/277/46 104/278/46 105/279/46
f 100/280/42 98/281/42 97/282/42
f 105/283/44 87/284/44 86/285/44
f 80/286/41 87/287/41 104/288/41
f 106/289/39 95/290/39 82/291/39
f 105/292/45 82/293/45 81/294/45
f 82/295/39 91/296/39 83/297/39
f 94/298/47 89/299/47 88/300/47
f 92/259/48 99/301/48 90/267/48
f 103/302/49 85/303/49 93/304/49
f 86/305/50 85/306/50 107/307/50
f 98/308/51 103/309/51 93/310/51
f 106/311/50 86/312/50 107/313/50
f 106/289/45 103/314/45 102/315/45
f 98/316/52 92/259/52 90/267/52
f 100/317/51 94/318/51 101/319/51
f 81/249/39 82/320/39 83/250/39
f 84/252/50 85/321/50 86/253/50
f 89/255/41 90/322/41 91/256/41
f 93/258/42 85/321/42 84/252/42
f 94/260/39 88/323/39 91/261/39
f 97/264/44 98/324/44 90/265/44
f 90/267/39 99/301/39 96/263/39
f 101/268/45 102/275/45 103/269/45
f 91/271/41 90/325/41 87/272/41
f 94/274/39 95/326/39 102/275/39
f 81/277/46 80/327/46 104/278/46
f 100/280/42 103/269/42 98/281/42
f 105/283/44 104/328/44 87/284/44
f 80/286/41 83/329/41 87/287/41
f 106/289/39 102/315/39 95/290/39
f 105/292/45 86/312/45 82/293/45
f 82/295/39 95/330/39 91/296/39
f 94/298/47 97/331/47 89/299/47
f 103/302/49 107/332/49 85/303/49
f 106/311/50 82/293/50 86/312/50
f 106/289/45 107/333/45 103/314/45
f 98/316/53 93/258/53 92/259/53
f 100/317/51 97/334/51 94/318/51
o Object_3
v 0.000000 -1036.999878 -3152.000000
v -363.000000 -899.999878 -3152.000000
v -426.000000 -959.999878 -2754.000000
v 0.000000 -1121.999878 -2754.000000
v 0.000000 -550.999817 -3994.000000
v 363.000000 -899.999878 -3152.000000
v 363.000000 -201.999863 -3152.000000
v 0.000000 -64.999863 -3152.000000
v 426.000000 -959.999878 -2754.000000
v 426.000000 -141.999878 -2754.000000
v -363.000000 -201.999863 -3152.000000
v 0.000000 20.000120 -2754.000000
v -426.000000 -141.999878 -2754.000000
vt 0.234375 0.671875
vt 0.000000 1.000000
vt 0.000000 0.671875
vt 0.484375 0.015625
vt 0.234375 0.671875
vt 0.734375 0.671875
vt 0.984375 0.671875
vt 0.734375 1.000000
vt 0.234375 1.000000
vt 0.734375 0.671875
vt 0.968750 1.000000
vt 0.734375 1.000000
vt 0.234375 1.000000
vt 0.968750 0.250000
vt 0.468750 0.031250
vt 0.000000 0.250000
vt 0.000000 0.750000
vt 0.468750 1.000000
vt 0.968750 0.750000
vn 0.3463 0.9175 0.1959
vn -0.3107 0.8232 0.4752
vn -0.3107 -0.8232 0.4752
vn -0.9877 0.0000 0.1563
vn 0.3107 0.8232 0.4752
vn -0.3487 0.9170 0.1934
vn 0.9183 0.0000 0.3959
vn -0.9183 0.0000 0.3959
vn 0.3487 -0.9170 0.1934
vn -0.3463 -0.9175 0.1959
vn 0.3107 -0.8232 0.4752
vn 0.9877 0.0000 0.1563
vn 0.3487 0.9170 0.1934
vn -0.3463 0.9175 0.1959
vn 0.3463 -0.9175 0.1959
vn -0.3487 -0.9170 0.1934
vn 0.0000 0.0000 1.0000
usemtl tex_16_transparent
s off
f 109/335/54 111/336/54 108/337/54
f 112/338/55 108/337/55 113/339/55
f 114/340/56 115/341/56 112/338/56
f 113/339/57 117/342/57 114/340/57
f 109/335/58 108/337/58 112/338/58
f 113/339/59 111/336/59 116/343/59
f 112/338/60 118/344/60 109/335/60
f 112/338/61 113/339/61 114/340/61
f 118/344/62 119/345/62 120/346/62
f 114/340/63 119/345/63 115/341/63
f 112/338/64 115/341/64 118/344/64
f 118/344/65 110/347/65 109/335/65
f 109/335/66 110/347/66 111/336/66
f 113/339/57 116/343/57 117/342/57
f 113/339/67 108/337/67 111/336/67
f 118/344/68 115/341/68 119/345/68
f 114/340/69 117/342/69 119/345/69
f 118/344/65 120/346/65 110/347/65
usemtl tex_17_transparent
f 110/348/70 111/349/70 116/350/70
f 117/351/70 119/352/70 120/353/70
f 110/348/70 117/351/70 120/353/70
f 110/348/70 116/350/70 117/351/70
